<svg xmlns="http://www.w3.org/2000/svg" viewBox="0 0 64 64">
  <defs>
    <linearGradient id="a" x1="8" y1="5" x2="55" y2="60" gradientUnits="userSpaceOnUse">
      <stop stop-color="#263d8f"/>
      <stop offset=".52" stop-color="#276bd7"/>
      <stop offset="1" stop-color="#33b8eb"/>
    </linearGradient>
    <linearGradient id="b" x1="32" y1="50" x2="32" y2="12" gradientUnits="userSpaceOnUse">
      <stop stop-color="#b8f2ff"/>
      <stop offset="1" stop-color="#fff"/>
    </linearGradient>
  </defs>
  <rect x="2" y="2" width="60" height="60" rx="17" fill="url(#a)"/>
  <path d="M13 28.5c.5-5.2 4.7-9.2 9.9-9.2 1 0 2 .1 2.9.4C28.1 15.1 32.8 12 38.3 12c7.3 0 13.3 5.6 13.9 12.8 3.1 1 5.3 3.8 5.3 7.1 0 4.1-3.4 7.5-7.5 7.5H16.5A8.5 8.5 0 0 1 13 28.5Z" fill="#fff" fill-opacity=".24"/>
  <path d="M31.9 12.4 22.3 29h6v11.2h7.2V29h6Z" fill="url(#b)" stroke="#fff" stroke-opacity=".88" stroke-linejoin="round" stroke-width="1.2"/>
  <g fill="none" stroke="#e9fbff" stroke-linecap="round" stroke-width="3.2">
    <path d="M14.5 43.5h35" opacity=".95"/>
    <path d="M18 49.5h28" opacity=".8"/>
    <path d="M23 55.5h18" opacity=".62"/>
  </g>
  <g fill="#fff">
    <circle cx="14.5" cy="43.5" r="2.1"/>
    <circle cx="49.5" cy="43.5" r="2.1"/>
    <circle cx="18" cy="49.5" r="1.9" opacity=".9"/>
    <circle cx="46" cy="49.5" r="1.9" opacity=".9"/>
  </g>
</svg>
